<?xml version="1.0" standalone="no"?>
<!DOCTYPE svg PUBLIC "-//W3C//DTD SVG 20010904//EN"
 "http://www.w3.org/TR/2001/REC-SVG-20010904/DTD/svg10.dtd">
<svg version="1.0" xmlns="http://www.w3.org/2000/svg"
 width="500.000000pt" height="200.000000pt" viewBox="0 0 500.000000 200.000000"
 preserveAspectRatio="xMidYMid meet">

<g transform="translate(0.000000,200.000000) scale(0.100000,-0.100000)"
fill="#000000" stroke="none">
<path d="M1833 1326 c-314 -117 -370 -538 -97 -732 115 -82 287 -97 416 -37
92 43 151 100 196 191 36 74 37 79 37 186 0 100 -3 117 -27 169 -39 82 -83
134 -151 178 -112 73 -254 90 -374 45z m226 -1 c99 -13 222 -108 276 -211 14
-29 31 -82 36 -119 42 -268 -189 -497 -460 -454 -122 19 -230 97 -292 212 -33
60 -34 65 -34 177 0 104 3 120 27 173 35 74 121 160 194 194 55 25 147 43 189
37 11 -1 40 -5 64 -9z"/>
<path d="M1838 1144 c-88 -66 -128 -102 -128 -116 0 -24 -5 -27 147 84 l122
90 129 -96 c72 -53 132 -96 136 -96 3 0 6 8 6 18 0 18 -238 202 -270 208 -8 2
-72 -40 -142 -92z"/>
<path d="M1960 1035 l0 -65 -60 0 c-47 0 -60 -3 -60 -15 0 -12 13 -15 60 -15
l60 0 0 -105 c0 -98 1 -105 20 -105 19 0 20 7 20 105 l0 105 60 0 c47 0 60 3
60 15 0 12 -13 15 -60 15 l-60 0 0 65 c0 58 -2 65 -20 65 -18 0 -20 -7 -20
-65z"/>
<path d="M1762 978 c-8 -8 -12 -52 -12 -130 0 -98 3 -118 15 -118 13 0 15 21
15 130 0 72 -1 130 -3 130 -2 0 -8 -5 -15 -12z"/>
<path d="M2170 860 c0 -123 1 -130 20 -130 19 0 20 7 20 120 0 109 -2 120 -20
130 -20 10 -20 8 -20 -120z"/>
<path d="M2633 1311 c-26 -17 -33 -27 -33 -53 0 -46 7 -54 91 -96 84 -42 99
-69 54 -98 -25 -16 -86 -16 -127 1 -14 5 -18 2 -18 -13 0 -25 18 -32 86 -32
94 0 141 43 118 109 -7 19 -29 36 -86 63 -66 32 -78 41 -78 62 0 33 48 49 105
36 25 -6 44 -5 49 0 18 18 -12 34 -71 37 -46 3 -65 0 -90 -16z"/>
<path d="M2850 1318 c1 -7 27 -78 59 -158 57 -140 58 -146 44 -175 -24 -48
-44 -65 -75 -65 -17 0 -28 -5 -28 -14 0 -39 87 -22 118 22 18 26 152 371 152
392 0 15 -37 12 -43 -2 -4 -13 -74 -211 -83 -238 -3 -8 -28 45 -56 118 -40
105 -54 132 -69 132 -11 0 -19 -6 -19 -12z"/>
<path d="M3205 1318 c-30 -16 -45 -39 -45 -68 0 -34 24 -56 103 -94 72 -36 85
-64 42 -92 -25 -16 -83 -16 -128 2 -13 4 -17 1 -17 -14 0 -26 46 -37 122 -30
61 6 88 32 88 83 0 40 -25 62 -104 95 -61 24 -79 52 -52 79 16 15 53 18 121 9
11 -2 21 4 23 13 2 11 -7 18 -29 23 -47 9 -101 7 -124 -6z"/>
<path d="M858 1304 c-42 -22 -53 -84 -24 -129 33 -50 138 -36 152 20 6 24 9
25 84 25 l78 0 37 -50 37 -50 143 0 c85 0 146 4 150 10 4 6 -45 10 -139 10
l-146 0 -32 50 -33 50 -87 0 c-69 0 -88 3 -88 14 0 21 -58 66 -83 66 -12 -1
-34 -7 -49 -16z m86 -25 c32 -25 35 -70 6 -99 -41 -41 -110 -10 -110 48 0 32
8 45 35 60 28 16 39 15 69 -9z"/>
<path d="M1056 1039 c-29 -34 -31 -43 -16 -86 25 -70 143 -73 165 -3 6 19 15
20 131 20 104 0 124 2 124 15 0 13 -21 15 -125 15 -124 0 -126 0 -135 24 -11
31 -39 46 -83 46 -27 0 -41 -7 -61 -31z m114 -9 c41 -41 10 -110 -49 -110 -20
0 -36 9 -50 27 -51 63 41 141 99 83z"/>
<path d="M2630 950 c-22 -41 14 -79 66 -68 26 5 44 39 33 66 -12 31 -83 32
-99 2z"/>
<path d="M3792 958 c-21 -21 -14 -57 13 -70 53 -24 109 26 75 68 -15 17 -71
19 -88 2z"/>
<path d="M694 930 c-28 -11 -54 -48 -54 -77 0 -99 136 -129 170 -37 8 21 16
24 59 24 l50 0 31 -55 31 -55 117 0 117 0 25 40 25 40 103 0 c79 0 103 3 100
13 -3 8 -36 13 -106 15 l-101 3 -31 -46 -31 -45 -103 0 -104 0 -28 55 -29 55
-57 0 c-53 0 -59 2 -72 28 -14 27 -54 53 -79 51 -7 0 -22 -4 -33 -9z m80 -35
c26 -27 29 -56 9 -84 -55 -73 -160 2 -107 77 18 26 74 30 98 7z"/>
<path d="M2630 690 l0 -160 50 0 50 0 0 160 0 160 -50 0 -50 0 0 -160z"/>
<path d="M2870 843 c-30 -11 -60 -47 -66 -80 -7 -38 10 -89 33 -98 14 -5 12
-10 -8 -31 -23 -25 -23 -26 -7 -55 17 -29 17 -30 -8 -41 -49 -22 -44 -97 8
-124 47 -24 151 -22 210 4 53 23 68 45 68 101 0 57 -33 81 -111 81 -66 0 -89
7 -89 26 0 10 14 14 48 14 82 0 132 48 120 114 -4 18 1 27 19 35 17 8 23 18
21 34 -3 21 -7 22 -113 24 -60 1 -117 -1 -125 -4z m98 -94 c4 -43 -20 -69 -46
-52 -20 12 -26 36 -18 69 5 20 12 25 34 22 23 -3 27 -8 30 -39z m39 -245 c9
-24 -23 -44 -68 -44 -50 0 -69 8 -69 30 0 23 13 28 78 29 40 1 54 -3 59 -15z"/>
<path d="M3160 690 l0 -160 55 0 55 0 0 94 c0 107 10 126 64 126 29 0 34 4 40
31 12 59 8 69 -23 69 -17 0 -42 -11 -59 -25 -17 -14 -32 -25 -35 -25 -3 0 -8
11 -11 25 -5 21 -12 25 -46 25 l-40 0 0 -160z"/>
<path d="M3490 832 c-48 -24 -73 -72 -74 -141 0 -109 52 -161 166 -161 95 0
118 11 118 56 0 30 -3 35 -17 29 -10 -4 -41 -9 -69 -12 -44 -5 -55 -2 -73 16
-11 11 -21 26 -21 31 0 6 40 10 101 10 l102 0 -6 49 c-3 28 -13 63 -21 79 -30
58 -135 80 -206 44z m120 -73 c15 -28 10 -31 -44 -27 -46 3 -46 3 -31 26 20
28 61 29 75 1z"/>
<path d="M3778 668 l-3 -183 -27 -3 c-25 -3 -28 -7 -28 -42 0 -44 21 -55 81
-41 82 19 89 41 89 271 l0 180 -55 0 -55 0 -2 -182z"/>
<path d="M4023 839 c-18 -5 -33 -14 -33 -20 0 -9 17 -47 25 -57 1 -2 23 2 49
9 36 9 49 9 61 -1 27 -22 18 -40 -21 -40 -51 0 -110 -19 -131 -43 -27 -29 -24
-99 6 -131 32 -34 105 -37 146 -5 22 18 29 20 36 8 5 -8 9 -17 9 -21 0 -5 18
-8 41 -8 l41 0 -4 130 c-3 126 -4 130 -30 157 -24 24 -37 28 -95 30 -38 1 -83
-2 -100 -8z m117 -193 c0 -30 -22 -49 -52 -44 -49 7 -28 68 23 68 24 0 29 -4
29 -24z"/>
<path d="M1371 640 l-31 -50 -150 0 c-145 0 -150 1 -161 23 -18 34 -40 46 -81
47 -64 0 -103 -60 -78 -121 15 -35 37 -49 79 -49 43 0 60 9 77 41 l15 29 154
0 155 0 31 55 31 55 59 0 c33 0 59 4 59 10 0 6 -28 10 -64 10 l-64 0 -31 -50z
m-372 -26 c26 -33 27 -58 1 -84 -60 -60 -152 17 -100 83 29 36 71 36 99 1z"/>
</g>
</svg>
